<svg width="126" height="47" xmlns="http://www.w3.org/2000/svg" fill="none">
   <circle fill="#00A046" r="19.84582" cy="19.84582" cx="19.84582"/>
   <path fill="black" d="m39.69139,19.93535c-0.04819,10.9596 -8.97372,19.81108 -19.93497,19.75604c-10.96117,-0.04819 -19.80436,-8.97575 -19.75622,-19.94202c0.04814,-10.9526 8.97386,-19.80422 19.935,-19.74911c10.96127,0.04822 19.80438,8.97562 19.75619,19.9351zm-12.70783,9.75412c-9.04253,-0.53058 -12.19886,4.07092 -12.73522,4.98701c1.58847,1.0746 3.32136,1.76345 5.123,1.79794c2.90876,0.05504 5.51495,-3.02396 7.61222,-6.78495zm12.17141,-9.75412c0.04819,-10.67016 -8.56108,-19.35647 -19.22665,-19.40469c-2.20737,-0.00689 -4.32533,0.3582 -6.30575,1.03326c0.89395,1.66699 1.22401,3.98151 1.33404,4.78745c-0.96271,-1.90119 -3.69956,-4.40859 -7.70857,-1.14346c-3.28009,2.67269 -6.72523,7.63236 -6.72523,14.54835c0,10.67024 8.55439,19.35635 19.21986,19.4048c10.67927,0.05504 19.36437,-8.5555 19.4123,-19.22571zm-20.33377,-11.11791c1.91856,-2.83113 8.63004,-8.08701 10.19794,1.01949c-2.572,-3.96774 -7.40607,-2.92071 -10.19794,-1.01949zm-3.90586,8.60364c0.72892,-0.98502 1.62286,-1.97697 2.6681,-2.90691c3.65142,-3.23066 7.66043,-4.43614 8.94638,-2.68649c0.78395,1.06083 0.385,2.96892 -0.86638,5.02168c0.35736,-1.10905 0.33681,-2.10787 -0.14457,-2.83115c-1.23771,-1.87365 -5.07481,-1.20547 -8.56808,1.49478c-0.75643,0.59929 -1.43719,1.23992 -2.03546,1.90809zm-6.07196,1.61191c-1.77413,-0.33755 -2.72996,-3.1618 -2.13171,-6.30291c0.59825,-3.14113 2.52369,-5.41431 4.29094,-5.07677c1.77415,0.33752 2.72998,3.16178 2.13173,6.30291c-0.59827,3.14111 -2.51681,5.41429 -4.29096,5.07677zm24.59034,-3.78863c0,0 -5.93429,21.95341 -13.98675,21.7949c-8.05928,-0.15826 -14.79138,-12.2751 -14.62634,-16.2084c0,0 11.66944,5.75884 28.6131,-5.5865zm-26.24757,-2.43162c-0.53636,2.88624 0.24756,5.46253 1.76038,5.75184c1.51284,0.29621 3.17694,-1.80476 3.71331,-4.69103c0.53639,-2.88624 -0.24754,-5.4625 -1.76038,-5.75184c-1.51282,-0.29618 -3.17694,1.80479 -3.71331,4.69103zm3.23196,2.43849c-0.61889,-0.13777 -0.95583,-1.05391 -0.80455,-2.11474c0.30257,0.06201 0.61889,-0.09643 0.74266,-0.39264c0.14441,-0.33065 0,-0.70951 -0.31632,-0.86795c0.35071,-0.59239 0.83894,-0.93681 1.29277,-0.83348c0.6739,0.14464 1.01087,1.20547 0.75643,2.36961c-0.25444,1.16416 -1.00397,1.98387 -1.671,1.8392z"/>
   <path fill="#221F1F" d="m77.11234,13.68712c-0.00685,5.89171 -3.90099,10.13093 -11.22768,10.12398l-6.15571,-0.00697l-0.00659,12.72457l-5.20563,-0.00685l0.02663,-33.00054l11.44833,0.00697c7.28662,0.02092 11.12724,4.26712 11.12065,10.15883zm-5.37962,0c0,-3.39557 -2.16798,-5.6616 -5.37962,-5.6616l-6.60411,-0.00697l-0.00659,11.26745l6.59727,0.00695c3.21849,0 5.38621,-2.21026 5.39306,-5.60583zm27.14005,8.12984l-0.01344,14.75359l-4.7973,-0.00685l0,-4.00929c-1.81341,2.83095 -4.71056,4.56701 -8.00919,4.56701c-4.29563,0 -7.09919,-2.50301 -7.09919,-6.32386c0,-3.6745 2.99099,-6.03125 8.46419,-7.16079l2.98414,-0.65539c2.75664,-0.56477 3.66664,-1.17834 3.66664,-2.58679c0,-1.93135 -1.85348,-3.06786 -5.0182,-3.06786c-3.12465,0 -6.51712,1.69431 -8.55119,3.81392l0.00685,-5.27814c2.26156,-1.7919 5.56679,-2.96327 9.09293,-2.96327c5.84121,0 9.27376,3.30492 9.27376,8.91772zm-4.80415,4.99236l0,-1.93145c-0.86308,0.56467 -2.08098,1.12949 -3.71356,1.50612l-1.53874,0.37638c-3.25856,0.75301 -4.75063,1.78501 -4.75063,3.53501c0,1.69446 1.17073,2.73331 3.03106,2.73331c4.07472,0 6.97187,-2.30798 6.97187,-6.21937zm17.00168,20.23437l14.27193,-33.55136l-5.28578,-0.00697l-6.11563,15.31846l-6.95868,-15.32541l-5.70071,-0.00697l10.11681,21.31461l-5.39306,12.25054l5.06512,0.0071z" clip-rule="evenodd" fill-rule="evenodd"/>
</svg>
